2015026_C5_03_grf
version=1
nRows=15
nColumns=19
inDegrees=no
endheader
time	ground_force_1_vx	ground_force_1_vy	ground_force_1_vz	ground_force_1_px	ground_force_1_py	ground_force_1_pz	ground_force_1_mx	ground_force_1_my	ground_force_1_mz	ground_force_2_vx	ground_force_2_vy	ground_force_2_vz	ground_force_2_px	ground_force_2_py	ground_force_2_pz	ground_force_2_mx	ground_force_2_my	ground_force_2_mz
      0.68000000	    -15.42036794	    287.95582056	     20.96190900	     -0.16375103	      0.00000000	      0.12154055	      0.00000000	     -0.74797566	      0.00000000	      0.00000000	      0.00000000	      0.00000000	      0.00000000	      0.00000000	      0.00000000	      0.00000000	      0.00000000	      0.00000000
      0.68100000	    -15.03763488	    286.04197502	     20.71464807	     -0.16306256	      0.00000000	      0.12154144	      0.00000000	     -0.74181292	      0.00000000	      0.00000000	      0.00000000	      0.00000000	      0.00000000	      0.00000000	      0.00000000	      0.00000000	      0.00000000	      0.00000000
      0.68200000	    -14.66365438	    284.19756889	     20.47257572	     -0.16236196	      0.00000000	      0.12154299	      0.00000000	     -0.73562991	      0.00000000	      0.00000000	      0.00000000	      0.00000000	      0.00000000	      0.00000000	      0.00000000	      0.00000000	      0.00000000	      0.00000000
      0.68300000	    -14.30037757	    282.43830800	     20.23714334	     -0.16164674	      0.00000000	      0.12154524	      0.00000000	     -0.72943609	      0.00000000	      0.00000000	      0.00000000	      0.00000000	      0.00000000	      0.00000000	      0.00000000	      0.00000000	      0.00000000	      0.00000000
      0.68400000	    -13.94547801	    280.74580431	     20.00712603	     -0.16092027	      0.00000000	      0.12154799	      0.00000000	     -0.72324509	      0.00000000	      0.00000000	      0.00000000	      0.00000000	      0.00000000	      0.00000000	      0.00000000	      0.00000000	      0.00000000	      0.00000000
      0.68500000	    -13.60082068	    279.13488448	     19.78398263	     -0.16018026	      0.00000000	      0.12155124	      0.00000000	     -0.71706971	      0.00000000	      0.00000000	      0.00000000	      0.00000000	      0.00000000	      0.00000000	      0.00000000	      0.00000000	      0.00000000	      0.00000000
      0.68600000	    -13.26417644	    277.58768201	     19.56640035	     -0.15942982	      0.00000000	      0.12155481	      0.00000000	     -0.71091382	      0.00000000	      0.00000000	      0.00000000	      0.00000000	      0.00000000	      0.00000000	      0.00000000	      0.00000000	      0.00000000	      0.00000000
      0.68700000	    -12.93732738	    276.11821890	     19.35582012	     -0.15866687	      0.00000000	      0.12155870	      0.00000000	     -0.70478883	      0.00000000	      0.00000000	      0.00000000	      0.00000000	      0.00000000	      0.00000000	      0.00000000	      0.00000000	      0.00000000	      0.00000000
      0.68800000	    -12.61813752	    274.70934391	     19.15086955	     -0.15789430	      0.00000000	      0.12156277	      0.00000000	     -0.69869223	      0.00000000	      0.00000000	      0.00000000	      0.00000000	      0.00000000	      0.00000000	      0.00000000	      0.00000000	      0.00000000	      0.00000000
      0.68900000	    -12.30830094	    273.37424457	     18.95296648	     -0.15711023	      0.00000000	      0.12156702	      0.00000000	     -0.69263423	      0.00000000	      0.00000000	      0.00000000	      0.00000000	      0.00000000	      0.00000000	      0.00000000	      0.00000000	      0.00000000	      0.00000000
      0.69000000	    -12.00577337	    272.09660411	     18.76069754	     -0.15631735	      0.00000000	      0.12157136	     -0.00000000	     -0.68660963	      0.00000000	      0.00000000	      0.00000000	      0.00000000	      0.00000000	      0.00000000	      0.00000000	      0.00000000	      0.00000000	      0.00000000
      0.69100000	    -11.71216136	    270.88868618	     18.57543737	     -0.15551390	      0.00000000	      0.12157572	     -0.00000000	     -0.68062884	      0.00000000	      0.00000000	      0.00000000	      0.00000000	      0.00000000	      0.00000000	      0.00000000	      0.00000000	      0.00000000	      0.00000000
      0.69200000	    -11.42550353	    269.73491907	     18.39573830	     -0.15470238	      0.00000000	      0.12158004	      0.00000000	     -0.67468480	      0.00000000	      0.00000000	      0.00000000	      0.00000000	      0.00000000	      0.00000000	      0.00000000	      0.00000000	      0.00000000	      0.00000000
      0.69300000	    -11.14731049	    268.64680648	     18.22290644	     -0.15388119	      0.00000000	      0.12158424	      0.00000000	     -0.66878660	      0.00000000	      0.00000000	      0.00000000	      0.00000000	      0.00000000	      0.00000000	      0.00000000	      0.00000000	      0.00000000	      0.00000000
      0.69400000	    -10.87570563	    267.60956645	     18.05547923	     -0.15305260	      0.00000000	      0.12158827	      0.00000000	     -0.66292454	      0.00000000	      0.00000000	      0.00000000	      0.00000000	      0.00000000	      0.00000000	      0.00000000	      0.00000000	      0.00000000	      0.00000000
